<?xml version="1.0" encoding="UTF-8" standalone="no"?>
<!DOCTYPE svg PUBLIC "-//W3C//DTD SVG 1.0//EN" "http://www.w3.org/TR/2001/PR-SVG-20010719/DTD/svg10.dtd">
<svg width="111cm" height="41cm" viewBox="-1108 -85 2215 816" xmlns="http://www.w3.org/2000/svg" xmlns:xlink="http://www.w3.org/1999/xlink">
  <g>
    <rect style="fill: #ffffff" x="384.096" y="157.142" width="145.037" height="38"/>
    <rect style="fill: none; fill-opacity:0; stroke-width: 2; stroke: #000000" x="384.096" y="157.142" width="145.037" height="38"/>
    <text font-size="12.8" style="fill: #000000;text-anchor:middle;font-family:sans-serif;font-style:normal;font-weight:normal" x="456.614" y="180.024">
      <tspan x="456.614" y="180.024">Gateway</tspan>
    </text>
  </g>
  <text font-size="12.8" style="fill: #000000;text-anchor:start;font-family:sans-serif;font-style:normal;font-weight:normal" x="668.098" y="70.5448">
    <tspan x="668.098" y="70.5448">API Publica</tspan>
  </text>
  <g>
    <rect style="fill: #ffffff" x="635.656" y="86.8676" width="153.761" height="38"/>
    <rect style="fill: none; fill-opacity:0; stroke-width: 2; stroke: #000000" x="635.656" y="86.8676" width="153.761" height="38"/>
    <text font-size="12.8" style="fill: #000000;text-anchor:middle;font-family:sans-serif;font-style:normal;font-weight:normal" x="712.537" y="109.749">
      <tspan x="712.537" y="109.749">Eventos</tspan>
    </text>
  </g>
  <g>
    <line style="fill: none; fill-opacity:0; stroke-width: 2; stroke: #000000" x1="529.405" y1="156.155" x2="635.434" y2="127.04"/>
    <polyline style="fill: none; fill-opacity:0; stroke-width: 2; stroke: #000000" points="629.271,133.917 637.59,126.448 626.623,124.274 "/>
  </g>
  <g>
    <rect style="fill: #ffffff" x="850.007" y="79.4644" width="207.7" height="54"/>
    <rect style="fill: none; fill-opacity:0; stroke-width: 2; stroke: #000000" x="850.007" y="79.4644" width="207.7" height="54"/>
    <text font-size="12.8" style="fill: #000000;text-anchor:middle;font-family:sans-serif;font-style:normal;font-weight:normal" x="953.857" y="102.346">
      <tspan x="953.857" y="102.346">[Numero da pagina]</tspan>
      <tspan x="953.857" y="118.346">Retorna lista com os eventos</tspan>
    </text>
  </g>
  <g>
    <line style="fill: none; fill-opacity:0; stroke-width: 2; stroke: #000000" x1="790.365" y1="106.06" x2="844.536" y2="106.194"/>
    <polyline style="fill: none; fill-opacity:0; stroke-width: 2; stroke: #000000" points="836.76,111.175 846.772,106.2 836.785,101.175 "/>
  </g>
  <text font-size="12.8" style="fill: #000000;text-anchor:start;font-family:sans-serif;font-style:normal;font-weight:normal" x="-27.9592" y="34.7814">
    <tspan x="-27.9592" y="34.7814">API Usuario</tspan>
  </text>
  <g>
    <rect style="fill: #ffffff" x="-36.6102" y="45.1786" width="177.207" height="102"/>
    <rect style="fill: none; fill-opacity:0; stroke-width: 2; stroke: #000000" x="-36.6102" y="45.1786" width="177.207" height="102"/>
    <text font-size="12.8" style="fill: #000000;text-anchor:middle;font-family:sans-serif;font-style:normal;font-weight:normal" x="51.9932" y="68.0598">
      <tspan x="51.9932" y="68.0598">Logar</tspan>
      <tspan x="51.9932" y="84.0598">+ Email</tspan>
      <tspan x="51.9932" y="100.06">+ Chave de Login</tspan>
      <tspan x="51.9932" y="116.06"></tspan>
      <tspan x="51.9932" y="132.06">Retorna ID da sessão</tspan>
    </text>
  </g>
  <g>
    <line style="fill: none; fill-opacity:0; stroke-width: 2; stroke: #000000" x1="383.106" y1="161.615" x2="145.99" y2="114.755"/>
    <polyline style="fill: none; fill-opacity:0; stroke-width: 2; stroke: #000000" points="154.576,111.355 143.797,114.321 152.638,121.165 "/>
  </g>
  <text font-size="12.8" style="fill: #000000;text-anchor:start;font-family:sans-serif;font-style:normal;font-weight:normal" x="51.9932" y="96.1786">
    <tspan x="51.9932" y="96.1786"></tspan>
  </text>
  <text font-size="12.8" style="fill: #000000;text-anchor:start;font-family:sans-serif;font-style:normal;font-weight:normal" x="51.9932" y="96.1786">
    <tspan x="51.9932" y="96.1786"></tspan>
  </text>
  <g>
    <rect style="fill: #ffffff" x="-468.652" y="264.6" width="324.8" height="54"/>
    <rect style="fill: none; fill-opacity:0; stroke-width: 2; stroke: #000000" x="-468.652" y="264.6" width="324.8" height="54"/>
    <text font-size="12.8" style="fill: #000000;text-anchor:middle;font-family:sans-serif;font-style:normal;font-weight:normal" x="-306.252" y="287.481">
      <tspan x="-306.252" y="287.481">Chave de Login = SHA512(Email+Senha)</tspan>
      <tspan x="-306.252" y="303.481">Chave de Sessão = SHA512(Email+Senha+ID)</tspan>
    </text>
  </g>
  <g>
    <polygon style="fill: #ffffff" points="37.3569,319.142 115.383,391.665 37.3569,464.187 -40.6688,391.665 "/>
    <polygon style="fill: none; fill-opacity:0; stroke-width: 2; stroke: #000000" points="37.3569,319.142 115.383,391.665 37.3569,464.187 -40.6688,391.665 "/>
    <text font-size="12.8" style="fill: #000000;text-anchor:middle;font-family:sans-serif;font-style:normal;font-weight:normal" x="37.3569" y="379.546">
      <tspan x="37.3569" y="379.546"> assinatura</tspan>
      <tspan x="37.3569" y="395.546">Valida ?</tspan>
      <tspan x="37.3569" y="411.546">+ Email</tspan>
    </text>
  </g>
  <g>
    <rect style="fill: #ffffff" x="-42.444" y="565.692" width="160.304" height="38"/>
    <rect style="fill: none; fill-opacity:0; stroke-width: 2; stroke: #000000" x="-42.444" y="565.692" width="160.304" height="38"/>
    <text font-size="12.8" style="fill: #000000;text-anchor:middle;font-family:sans-serif;font-style:normal;font-weight:normal" x="37.708" y="588.573">
      <tspan x="37.708" y="588.573">Retorna Forbidden</tspan>
    </text>
  </g>
  <g>
    <line style="fill: none; fill-opacity:0; stroke-width: 2; stroke: #000000" x1="37.4904" y1="465.069" x2="37.6635" y2="560.227"/>
    <polyline style="fill: none; fill-opacity:0; stroke-width: 2; stroke: #000000" points="32.6494,552.472 37.6676,562.463 42.6494,552.454 "/>
  </g>
  <text font-size="12.8" style="fill: #000000;text-anchor:start;font-family:sans-serif;font-style:normal;font-weight:normal" x="56.7292" y="507.036">
    <tspan x="56.7292" y="507.036">Não</tspan>
  </text>
  <g>
    <rect style="fill: #ffffff" x="-831.078" y="374.598" width="226.25" height="38"/>
    <rect style="fill: none; fill-opacity:0; stroke-width: 2; stroke: #000000" x="-831.078" y="374.598" width="226.25" height="38"/>
    <text font-size="12.8" style="fill: #000000;text-anchor:middle;font-family:sans-serif;font-style:normal;font-weight:normal" x="-717.953" y="397.479">
      <tspan x="-717.953" y="397.479">Conta</tspan>
    </text>
  </g>
  <text font-size="12.8" style="fill: #000000;text-anchor:start;font-family:sans-serif;font-style:normal;font-weight:normal" x="37.357" y="391.664">
    <tspan x="37.357" y="391.664"></tspan>
  </text>
  <g>
    <rect style="fill: #ffffff" x="147.688" y="365.052" width="176.661" height="44.4412"/>
    <rect style="fill: none; fill-opacity:0; stroke-width: 2; stroke: #000000" x="147.688" y="365.052" width="176.661" height="44.4412"/>
    <text font-size="12.8" style="fill: #000000;text-anchor:middle;font-family:sans-serif;font-style:normal;font-weight:normal" x="236.018" y="391.154">
      <tspan x="236.018" y="391.154">Usuario</tspan>
    </text>
  </g>
  <g>
    <line style="fill: none; fill-opacity:0; stroke-width: 2; stroke: #000000" x1="435.711" y1="196.148" x2="263.498" y2="360.972"/>
    <polyline style="fill: none; fill-opacity:0; stroke-width: 2; stroke: #000000" points="265.65,351.992 261.883,362.518 272.564,359.216 "/>
  </g>
  <text font-size="12.8" style="fill: #000000;text-anchor:start;font-family:sans-serif;font-style:normal;font-weight:normal" x="-717.952" y="393.598">
    <tspan x="-717.952" y="393.598"></tspan>
  </text>
  <g>
    <line style="fill: none; fill-opacity:0; stroke-width: 2; stroke: #000000" x1="146.727" y1="389.247" x2="119.097" y2="389.858"/>
    <polyline style="fill: none; fill-opacity:0; stroke-width: 2; stroke: #000000" points="126.748,384.687 116.861,389.907 126.969,394.685 "/>
  </g>
  <g>
    <line style="fill: none; fill-opacity:0; stroke-width: 2; stroke: #000000" x1="-41.5325" y1="391.867" x2="-599.428" y2="393.295"/>
    <polyline style="fill: none; fill-opacity:0; stroke-width: 2; stroke: #000000" points="-591.677,388.275 -601.664,393.3 -591.652,398.275 "/>
  </g>
  <g>
    <rect style="fill: #ffffff" x="-444.352" y="485.964" width="241.087" height="38"/>
    <rect style="fill: none; fill-opacity:0; stroke-width: 2; stroke: #000000" x="-444.352" y="485.964" width="241.087" height="38"/>
    <text font-size="12.8" style="fill: #000000;text-anchor:middle;font-family:sans-serif;font-style:normal;font-weight:normal" x="-323.809" y="508.845">
      <tspan x="-323.809" y="508.845">Evento</tspan>
    </text>
  </g>
  <g>
    <line style="fill: none; fill-opacity:0; stroke-width: 2; stroke: #000000" x1="-322.716" y1="392.586" x2="-323.571" y2="480.505"/>
    <polyline style="fill: none; fill-opacity:0; stroke-width: 2; stroke: #000000" points="-328.495,472.693 -323.592,482.741 -318.495,472.79 "/>
  </g>
  <text font-size="12.8" style="fill: #000000;text-anchor:start;font-family:sans-serif;font-style:normal;font-weight:normal" x="701.008" y="286.332">
    <tspan x="701.008" y="286.332">API Admin</tspan>
  </text>
  <g>
    <rect style="fill: #ffffff" x="612.058" y="302.092" width="198.988" height="38"/>
    <rect style="fill: none; fill-opacity:0; stroke-width: 2; stroke: #000000" x="612.058" y="302.092" width="198.988" height="38"/>
    <text font-size="12.8" style="fill: #000000;text-anchor:middle;font-family:sans-serif;font-style:normal;font-weight:normal" x="711.552" y="324.973">
      <tspan x="711.552" y="324.973">Admin</tspan>
    </text>
  </g>
  <g>
    <polygon style="fill: #ffffff" points="715.96,415.492 791.498,469.621 715.96,523.749 640.422,469.621 "/>
    <polygon style="fill: none; fill-opacity:0; stroke-width: 2; stroke: #000000" points="715.96,415.492 791.498,469.621 715.96,523.749 640.422,469.621 "/>
    <text font-size="12.8" style="fill: #000000;text-anchor:middle;font-family:sans-serif;font-style:normal;font-weight:normal" x="715.96" y="465.502">
      <tspan x="715.96" y="465.502">Assinatura</tspan>
      <tspan x="715.96" y="481.502">Valida?</tspan>
    </text>
  </g>
  <g>
    <line style="fill: none; fill-opacity:0; stroke-width: 2; stroke: #000000" x1="491.796" y1="196.146" x2="672.483" y2="298.878"/>
    <polyline style="fill: none; fill-opacity:0; stroke-width: 2; stroke: #000000" points="663.262,299.388 674.427,299.984 668.205,290.694 "/>
  </g>
  <g>
    <line style="fill: none; fill-opacity:0; stroke-width: 2; stroke: #000000" x1="712.142" y1="340.964" x2="714.225" y2="411.175"/>
    <polyline style="fill: none; fill-opacity:0; stroke-width: 2; stroke: #000000" points="708.997,403.562 714.292,413.41 718.993,403.266 "/>
  </g>
  <g>
    <rect style="fill: #ffffff" x="636.81" y="610.51" width="160.304" height="38"/>
    <rect style="fill: none; fill-opacity:0; stroke-width: 2; stroke: #000000" x="636.81" y="610.51" width="160.304" height="38"/>
    <text font-size="12.8" style="fill: #000000;text-anchor:middle;font-family:sans-serif;font-style:normal;font-weight:normal" x="716.962" y="633.391">
      <tspan x="716.962" y="633.391">Retorna Forbidden</tspan>
    </text>
  </g>
  <text font-size="12.8" style="fill: #000000;text-anchor:start;font-family:sans-serif;font-style:normal;font-weight:normal" x="740.568" y="567.444">
    <tspan x="740.568" y="567.444">Não</tspan>
  </text>
  <g>
    <line style="fill: none; fill-opacity:0; stroke-width: 2; stroke: #000000" x1="716.304" y1="524.465" x2="716.809" y2="605.042"/>
    <polyline style="fill: none; fill-opacity:0; stroke-width: 2; stroke: #000000" points="711.76,597.31 716.823,607.278 721.76,597.247 "/>
  </g>
  <g>
    <rect style="fill: #ffffff" x="-961.62" y="486.408" width="220.079" height="57.6008"/>
    <rect style="fill: none; fill-opacity:0; stroke-width: 2; stroke: #000000" x="-961.62" y="486.408" width="220.079" height="57.6008"/>
    <text font-size="12.8" style="fill: #000000;text-anchor:middle;font-family:sans-serif;font-style:normal;font-weight:normal" x="-851.58" y="519.09">
      <tspan x="-851.58" y="519.09">Increver em um evento</tspan>
    </text>
  </g>
  <text font-size="12.8" style="fill: #000000;text-anchor:start;font-family:sans-serif;font-style:normal;font-weight:normal" x="-323.808" y="504.964">
    <tspan x="-323.808" y="504.964"></tspan>
  </text>
  <g>
    <polygon style="fill: #ffffff" points="-563.206,444.453 -488.195,511.905 -563.206,579.356 -638.218,511.905 "/>
    <polygon style="fill: none; fill-opacity:0; stroke-width: 2; stroke: #000000" points="-563.206,444.453 -488.195,511.905 -563.206,579.356 -638.218,511.905 "/>
    <text font-size="12.8" style="fill: #000000;text-anchor:middle;font-family:sans-serif;font-style:normal;font-weight:normal" x="-563.206" y="499.786">
      <tspan x="-563.206" y="499.786">Qual </tspan>
      <tspan x="-563.206" y="515.786">a ação</tspan>
      <tspan x="-563.206" y="531.786">Solicitada</tspan>
    </text>
  </g>
  <g>
    <rect style="fill: #ffffff" x="-674.61" y="673.022" width="220.079" height="57.6008"/>
    <rect style="fill: none; fill-opacity:0; stroke-width: 2; stroke: #000000" x="-674.61" y="673.022" width="220.079" height="57.6008"/>
    <text font-size="12.8" style="fill: #000000;text-anchor:middle;font-family:sans-serif;font-style:normal;font-weight:normal" x="-564.57" y="705.704">
      <tspan x="-564.57" y="705.704">Desincrever em um evento</tspan>
    </text>
  </g>
  <g>
    <line style="fill: none; fill-opacity:0; stroke-width: 2; stroke: #000000" x1="-637.799" y1="513.286" x2="-737.071" y2="515.125"/>
    <polyline style="fill: none; fill-opacity:0; stroke-width: 2; stroke: #000000" points="-729.401,509.982 -739.306,515.167 -729.215,519.981 "/>
  </g>
  <g>
    <line style="fill: none; fill-opacity:0; stroke-width: 2; stroke: #000000" x1="-563.695" y1="579.901" x2="-564.324" y2="667.56"/>
    <polyline style="fill: none; fill-opacity:0; stroke-width: 2; stroke: #000000" points="-569.268,659.76 -564.34,669.796 -559.269,659.832 "/>
  </g>
  <g>
    <line style="fill: none; fill-opacity:0; stroke-width: 2; stroke: #000000" x1="-445.356" y1="508.488" x2="-485.035" y2="509.638"/>
    <polyline style="fill: none; fill-opacity:0; stroke-width: 2; stroke: #000000" points="-477.419,504.415 -487.27,509.703 -477.129,514.411 "/>
  </g>
  <g>
    <polygon style="fill: #ffffff" points="-718.375,129.843 -639.994,194.241 -718.375,258.639 -796.756,194.241 "/>
    <polygon style="fill: none; fill-opacity:0; stroke-width: 2; stroke: #000000" points="-718.375,129.843 -639.994,194.241 -718.375,258.639 -796.756,194.241 "/>
    <text font-size="12.8" style="fill: #000000;text-anchor:middle;font-family:sans-serif;font-style:normal;font-weight:normal" x="-718.375" y="182.122">
      <tspan x="-718.375" y="182.122">Qual</tspan>
      <tspan x="-718.375" y="198.122">a ação</tspan>
      <tspan x="-718.375" y="214.122">Solicitada</tspan>
    </text>
  </g>
  <g>
    <line style="fill: none; fill-opacity:0; stroke-width: 2; stroke: #000000" x1="-717.995" y1="373.618" x2="-718.227" y2="263.993"/>
    <polyline style="fill: none; fill-opacity:0; stroke-width: 2; stroke: #000000" points="-713.211,271.747 -718.232,261.757 -723.211,271.768 "/>
  </g>
  <g>
    <rect style="fill: #ffffff" x="-925.024" y="-12.0942" width="138.466" height="38"/>
    <rect style="fill: none; fill-opacity:0; stroke-width: 2; stroke: #000000" x="-925.024" y="-12.0942" width="138.466" height="38"/>
    <text font-size="12.8" style="fill: #000000;text-anchor:middle;font-family:sans-serif;font-style:normal;font-weight:normal" x="-855.791" y="10.7871">
      <tspan x="-855.791" y="10.7871">Alterar Email</tspan>
    </text>
  </g>
  <g>
    <rect style="fill: #ffffff" x="-664.598" y="-11.521" width="132.964" height="48.4308"/>
    <rect style="fill: none; fill-opacity:0; stroke-width: 2; stroke: #000000" x="-664.598" y="-11.521" width="132.964" height="48.4308"/>
    <text font-size="12.8" style="fill: #000000;text-anchor:middle;font-family:sans-serif;font-style:normal;font-weight:normal" x="-598.116" y="16.5756">
      <tspan x="-598.116" y="16.5756">Alterar Senha</tspan>
    </text>
  </g>
  <g>
    <rect style="fill: #ffffff" x="-549.3" y="178.297" width="173.8" height="38"/>
    <rect style="fill: none; fill-opacity:0; stroke-width: 2; stroke: #000000" x="-549.3" y="178.297" width="173.8" height="38"/>
    <text font-size="12.8" style="fill: #000000;text-anchor:middle;font-family:sans-serif;font-style:normal;font-weight:normal" x="-462.4" y="201.178">
      <tspan x="-462.4" y="201.178">Informações de Usuario</tspan>
    </text>
  </g>
  <g>
    <rect style="fill: #ffffff" x="-1106.88" y="174.629" width="193.15" height="45.6798"/>
    <rect style="fill: none; fill-opacity:0; stroke-width: 2; stroke: #000000" x="-1106.88" y="174.629" width="193.15" height="45.6798"/>
    <text font-size="12.8" style="fill: #000000;text-anchor:middle;font-family:sans-serif;font-style:normal;font-weight:normal" x="-1010.31" y="201.35">
      <tspan x="-1010.31" y="201.35">Alterar outras informações</tspan>
    </text>
  </g>
  <g>
    <line style="fill: none; fill-opacity:0; stroke-width: 2; stroke: #000000" x1="-796.845" y1="195.109" x2="-908.253" y2="196.341"/>
    <polyline style="fill: none; fill-opacity:0; stroke-width: 2; stroke: #000000" points="-900.545,191.255 -910.489,196.365 -900.434,201.254 "/>
  </g>
  <g>
    <line style="fill: none; fill-opacity:0; stroke-width: 2; stroke: #000000" x1="-748.305" y1="153.439" x2="-838.476" y2="30.51"/>
    <polyline style="fill: none; fill-opacity:0; stroke-width: 2; stroke: #000000" points="-829.853,33.8129 -839.799,28.707 -837.916,39.7276 "/>
  </g>
  <g>
    <line style="fill: none; fill-opacity:0; stroke-width: 2; stroke: #000000" x1="-690.329" y1="151.902" x2="-617.277" y2="41.6203"/>
    <polyline style="fill: none; fill-opacity:0; stroke-width: 2; stroke: #000000" points="-617.396,50.8542 -616.042,39.7561 -625.733,45.3317 "/>
  </g>
  <g>
    <line style="fill: none; fill-opacity:0; stroke-width: 2; stroke: #000000" x1="-639.929" y1="195.178" x2="-554.777" y2="196.194"/>
    <polyline style="fill: none; fill-opacity:0; stroke-width: 2; stroke: #000000" points="-562.6,201.101 -552.541,196.221 -562.481,191.102 "/>
  </g>
  <g>
    <rect style="fill: #ffffff" x="-44.6282" y="182.724" width="219" height="86"/>
    <rect style="fill: none; fill-opacity:0; stroke-width: 2; stroke: #000000" x="-44.6282" y="182.724" width="219" height="86"/>
    <text font-size="12.8" style="fill: #000000;text-anchor:middle;font-family:sans-serif;font-style:normal;font-weight:normal" x="64.8718" y="205.605">
      <tspan x="64.8718" y="205.605">Cadastro</tspan>
      <tspan x="64.8718" y="221.605">+Usuario</tspan>
      <tspan x="64.8718" y="237.605"></tspan>
      <tspan x="64.8718" y="253.605">Retorna Usuario se cadastrado</tspan>
    </text>
  </g>
  <g>
    <line style="fill: none; fill-opacity:0; stroke-width: 2; stroke: #000000" x1="380.492" y1="179.044" x2="179.803" y2="208.726"/>
    <polyline style="fill: none; fill-opacity:0; stroke-width: 2; stroke: #000000" points="186.752,202.644 177.591,209.053 188.215,212.536 "/>
  </g>
  <g>
    <rect style="fill: #ffffff" x="975.53" y="416.716" width="130.45" height="38"/>
    <rect style="fill: none; fill-opacity:0; stroke-width: 2; stroke: #000000" x="975.53" y="416.716" width="130.45" height="38"/>
    <text font-size="12.8" style="fill: #000000;text-anchor:middle;font-family:sans-serif;font-style:normal;font-weight:normal" x="1040.76" y="439.597">
      <tspan x="1040.76" y="439.597">Adicionar Evento</tspan>
    </text>
  </g>
  <g>
    <rect style="fill: #ffffff" x="974.404" y="497.412" width="124.1" height="38"/>
    <rect style="fill: none; fill-opacity:0; stroke-width: 2; stroke: #000000" x="974.404" y="497.412" width="124.1" height="38"/>
    <text font-size="12.8" style="fill: #000000;text-anchor:middle;font-family:sans-serif;font-style:normal;font-weight:normal" x="1036.45" y="520.293">
      <tspan x="1036.45" y="520.293">Deletar Evento</tspan>
    </text>
  </g>
  <g>
    <line style="fill: none; fill-opacity:0; stroke-width: 2; stroke: #000000" x1="783.084" y1="462.614" x2="970.085" y2="443.093"/>
    <polyline style="fill: none; fill-opacity:0; stroke-width: 2; stroke: #000000" points="962.882,448.872 972.309,442.861 961.844,438.926 "/>
  </g>
  <g>
    <line style="fill: none; fill-opacity:0; stroke-width: 2; stroke: #000000" x1="779.847" y1="478.948" x2="969.041" y2="506.57"/>
    <polyline style="fill: none; fill-opacity:0; stroke-width: 2; stroke: #000000" points="960.636,510.396 971.254,506.893 962.081,500.501 "/>
  </g>
  <g>
    <rect style="fill: #ffffff" x="359.796" y="-83.0044" width="207.246" height="39.6"/>
    <rect style="fill: none; fill-opacity:0; stroke-width: 2; stroke: #000000" x="359.796" y="-83.0044" width="207.246" height="39.6"/>
    <text font-size="12.7998" style="fill: #000000;text-anchor:middle;font-family:sans-serif;font-style:normal;font-weight:normal" x="463.419" y="-59.3233">
      <tspan x="463.419" y="-59.3233">Usuario</tspan>
    </text>
  </g>
  <g>
    <line style="fill: none; fill-opacity:0; stroke-width: 2; stroke: #000000" x1="462.831" y1="-42.5187" x2="457.31" y2="151.673"/>
    <polyline style="fill: none; fill-opacity:0; stroke-width: 2; stroke: #000000" points="452.533,143.77 457.247,153.908 462.529,144.054 "/>
  </g>
</svg>
